<svg width="60" height="60" viewBox="0 0 33 12" fill="none" xmlns="http://www.w3.org/2000/svg">
<path d="M0.159142 7.25994V5.75994L6.15914 3.1179V4.84375L2.05119 6.4929L2.10658 6.40341V6.61648L2.05119 6.52699L6.15914 8.17614V9.90199L0.159142 7.25994ZM26.6325 0.863636L23.82 11.3125H22.2561L25.0686 0.863636H26.6325ZM32.8409 7.25994L26.8409 9.90199V8.17614L30.9488 6.52699L30.8934 6.61648V6.40341L30.9488 6.4929L26.8409 4.84375V3.1179L32.8409 5.75994V7.25994Z" fill="white"/>
<path d="M8.48005 10H6.50278L9.51556 1.27273H11.8934L14.9019 10H12.9247L10.7386 3.26705H10.6704L8.48005 10ZM8.35647 6.5696H13.0269V8.00994H8.35647V6.5696ZM14.9324 10V1.27273H16.7775V4.87358H20.5233V1.27273H22.3642V10H20.5233V6.39489H16.7775V10H14.9324Z" fill="#FF506E"/>
</svg>
